<svg width="250" height="250" viewBox="0 0 250 250" fill="none" xmlns="http://www.w3.org/2000/svg">
<circle cx="125" cy="125" r="125" fill="white"/>
<path d="M91.1047 141.243L108.757 158.895L158.89 108.762L141.238 91.11L91.1047 141.243Z" fill="#7159C1"/>
<path d="M45.9926 187.757C44.8687 188.881 44.8687 190.712 45.9926 191.836L57.0653 202.908C58.1892 204.036 60.0195 204.028 61.1434 202.908L65.5237 198.526L50.3729 183.377L45.9926 187.757Z" fill="#7159C1"/>
<path d="M46.7897 139.364L87.5388 180.115L103.117 195.691L103.12 195.695L110.632 203.209L126.803 187.036L62.9605 123.195L46.7897 139.364Z" fill="#7159C1"/>
<path d="M40 162.904L87.0999 210.004L97.2161 199.888L50.1161 152.788L40 162.904Z" fill="#7159C1"/>
<path d="M202.905 61.1467C204.029 60.0228 204.029 58.1924 202.905 57.0685L191.834 45.9977C191.294 45.4575 190.571 45.1591 189.796 45.1591C189.02 45.1591 188.296 45.4556 187.758 45.9977L183.376 50.38L198.525 65.5289L202.905 61.1467Z" fill="#7159C1"/>
<path d="M123.193 62.964L187.036 126.807L203.207 110.637L139.363 46.7934L123.193 62.964Z" fill="#7159C1"/>
<path d="M152.783 50.1161L199.884 97.2174L210 87.1013L162.899 40L152.783 50.1161Z" fill="#7159C1"/>
</svg>
