<svg width="511" height="82" viewBox="0 0 511 82" fill="none" xmlns="http://www.w3.org/2000/svg">
<g clip-path="url(#clip0)">
<path d="M73.6903 26.039L67.4884 19.8371L72.1506 15.1767C72.5628 14.7649 72.7945 14.207 72.7945 13.6234C72.7945 13.0398 72.5628 12.4818 72.1507 12.0699L65.9087 5.82788C65.0848 5.00391 63.6256 5.00391 62.8016 5.82788L58.1412 10.4901L51.9385 4.28701C50.2224 2.57094 47.4399 2.57094 45.7237 4.28701C44.0074 6.00308 44.0074 8.78556 45.7237 10.5018L67.4754 32.2537C69.1917 33.9698 71.9742 33.9698 73.6903 32.2537C75.4064 30.5376 75.4064 27.7552 73.6903 26.039Z" fill="#7159C1"/>
<path d="M29.2764 70.4981L7.52478 48.7461C5.80842 47.0301 3.02624 47.0301 1.30988 48.7461C-0.40619 50.4625 -0.40619 53.245 1.30988 54.961L7.51277 61.1639L2.85969 65.8151C2.44762 66.2272 2.21589 66.785 2.21589 67.3686C2.21589 67.9522 2.44762 68.5101 2.85969 68.9221L9.10169 75.162C9.53074 75.5914 10.093 75.806 10.6552 75.806C11.2174 75.806 11.7796 75.5914 12.2086 75.1622L16.8598 70.511L23.0617 76.713C24.7777 78.4291 27.5602 78.4291 29.2764 76.713C30.9928 74.9966 30.9928 72.2142 29.2764 70.4981Z" fill="#7159C1"/>
<path d="M39.5088 29.1463L26.1691 42.5315L35.4913 51.8538L48.8311 38.4683L39.5088 29.1463Z" fill="#7159C1"/>
<path d="M67.4755 38.4685L39.5088 10.5018C37.7928 8.7857 35.0101 8.7857 33.2941 10.5018C31.5777 12.2181 31.5777 15.0003 33.2941 16.7167L61.2608 44.6834C62.9768 46.3995 65.7593 46.3995 67.4755 44.6834C69.1919 42.9673 69.1919 40.1848 67.4755 38.4685Z" fill="#7159C1"/>
<path d="M41.7062 64.2833L13.7394 36.3165C12.0233 34.6004 9.24084 34.6004 7.52477 36.3165C5.80841 38.0328 5.80841 40.8153 7.52477 42.5314L35.4915 70.4981C37.2075 72.2141 39.99 72.2141 41.7062 70.4981C43.4226 68.782 43.4226 65.9995 41.7062 64.2833Z" fill="#7159C1"/>
</g>
<path d="M117.144 30.592C118.904 30.592 120.424 30.96 121.704 31.696C122.984 32.4 123.96 33.376 124.632 34.624V30.928H135.24V57.52C135.24 60.048 134.776 62.352 133.848 64.432C132.92 66.512 131.416 68.176 129.336 69.424C127.288 70.672 124.648 71.296 121.416 71.296C117.064 71.296 113.608 70.272 111.048 68.224C108.52 66.208 107.08 63.456 106.728 59.968H117.192C117.48 61.376 118.632 62.08 120.648 62.08C121.896 62.08 122.872 61.76 123.576 61.12C124.28 60.48 124.632 59.28 124.632 57.52V54.304C123.96 55.552 122.984 56.544 121.704 57.28C120.424 57.984 118.904 58.336 117.144 58.336C115.032 58.336 113.128 57.792 111.432 56.704C109.736 55.584 108.392 53.984 107.4 51.904C106.44 49.792 105.96 47.312 105.96 44.464C105.96 41.616 106.44 39.152 107.4 37.072C108.392 34.96 109.736 33.36 111.432 32.272C113.128 31.152 115.032 30.592 117.144 30.592ZM124.632 44.464C124.632 43.024 124.264 41.904 123.528 41.104C122.792 40.304 121.848 39.904 120.696 39.904C119.544 39.904 118.6 40.304 117.864 41.104C117.128 41.904 116.76 43.024 116.76 44.464C116.76 45.904 117.128 47.024 117.864 47.824C118.6 48.624 119.544 49.024 120.696 49.024C121.848 49.024 122.792 48.624 123.528 47.824C124.264 47.024 124.632 45.904 124.632 44.464ZM170.601 30.928L153.273 70.96H141.609L148.425 56.656L137.145 30.928H149.001L154.089 44.656L158.841 30.928H170.601ZM208.653 30.736C212.109 30.736 214.781 31.776 216.669 33.856C218.589 35.936 219.549 38.752 219.549 42.304V58H208.941V43.648C208.941 42.496 208.589 41.6 207.885 40.96C207.213 40.288 206.301 39.952 205.149 39.952C203.965 39.952 203.037 40.288 202.365 40.96C201.693 41.6 201.357 42.496 201.357 43.648V58H190.749V43.648C190.749 42.496 190.397 41.6 189.693 40.96C189.021 40.288 188.109 39.952 186.957 39.952C185.773 39.952 184.845 40.288 184.173 40.96C183.501 41.6 183.165 42.496 183.165 43.648V58H172.509V30.928H183.165V34.576C183.933 33.424 184.973 32.496 186.285 31.792C187.629 31.088 189.197 30.736 190.989 30.736C192.941 30.736 194.669 31.168 196.173 32.032C197.677 32.864 198.877 34.048 199.773 35.584C200.765 34.176 202.029 33.024 203.565 32.128C205.101 31.2 206.797 30.736 208.653 30.736ZM268.466 30.736C271.922 30.736 274.594 31.776 276.482 33.856C278.402 35.936 279.362 38.752 279.362 42.304V58H268.754V43.648C268.754 42.496 268.402 41.6 267.698 40.96C267.026 40.288 266.114 39.952 264.962 39.952C263.778 39.952 262.85 40.288 262.178 40.96C261.506 41.6 261.17 42.496 261.17 43.648V58H250.562V43.648C250.562 42.496 250.21 41.6 249.506 40.96C248.834 40.288 247.922 39.952 246.77 39.952C245.586 39.952 244.658 40.288 243.986 40.96C243.314 41.6 242.978 42.496 242.978 43.648V58H232.322V30.928H242.978V34.576C243.746 33.424 244.786 32.496 246.098 31.792C247.442 31.088 249.01 30.736 250.802 30.736C252.754 30.736 254.482 31.168 255.986 32.032C257.49 32.864 258.69 34.048 259.586 35.584C260.578 34.176 261.842 33.024 263.378 32.128C264.914 31.2 266.61 30.736 268.466 30.736ZM282.538 44.464C282.538 41.616 283.018 39.152 283.978 37.072C284.97 34.96 286.314 33.36 288.01 32.272C289.706 31.152 291.61 30.592 293.722 30.592C295.482 30.592 297.002 30.96 298.282 31.696C299.562 32.4 300.538 33.376 301.21 34.624V30.928H311.818V58H301.21V54.304C300.538 55.552 299.562 56.544 298.282 57.28C297.002 57.984 295.482 58.336 293.722 58.336C291.61 58.336 289.706 57.792 288.01 56.704C286.314 55.584 284.97 53.984 283.978 51.904C283.018 49.792 282.538 47.312 282.538 44.464ZM301.21 44.464C301.21 43.024 300.842 41.904 300.106 41.104C299.37 40.304 298.426 39.904 297.274 39.904C296.122 39.904 295.178 40.304 294.442 41.104C293.706 41.904 293.338 43.024 293.338 44.464C293.338 45.904 293.706 47.024 294.442 47.824C295.178 48.624 296.122 49.024 297.274 49.024C298.426 49.024 299.37 48.624 300.106 47.824C300.842 47.024 301.21 45.904 301.21 44.464ZM335.563 30.736C338.667 30.736 341.083 31.776 342.811 33.856C344.571 35.936 345.451 38.752 345.451 42.304V58H334.843V43.648C334.843 42.368 334.491 41.36 333.787 40.624C333.115 39.856 332.203 39.472 331.051 39.472C329.867 39.472 328.939 39.856 328.267 40.624C327.595 41.36 327.259 42.368 327.259 43.648V58H316.603V30.928H327.259V35.056C328.091 33.776 329.195 32.736 330.571 31.936C331.979 31.136 333.643 30.736 335.563 30.736ZM348.632 44.464C348.632 41.616 349.112 39.152 350.072 37.072C351.064 34.96 352.408 33.36 354.104 32.272C355.8 31.152 357.704 30.592 359.816 30.592C361.576 30.592 363.096 30.96 364.376 31.696C365.656 32.4 366.632 33.376 367.304 34.624V30.928H377.912V58H367.304V54.304C366.632 55.552 365.656 56.544 364.376 57.28C363.096 57.984 361.576 58.336 359.816 58.336C357.704 58.336 355.8 57.792 354.104 56.704C352.408 55.584 351.064 53.984 350.072 51.904C349.112 49.792 348.632 47.312 348.632 44.464ZM367.304 44.464C367.304 43.024 366.936 41.904 366.2 41.104C365.464 40.304 364.52 39.904 363.368 39.904C362.216 39.904 361.272 40.304 360.536 41.104C359.8 41.904 359.432 43.024 359.432 44.464C359.432 45.904 359.8 47.024 360.536 47.824C361.272 48.624 362.216 49.024 363.368 49.024C364.52 49.024 365.464 48.624 366.2 47.824C366.936 47.024 367.304 45.904 367.304 44.464ZM392.441 30.592C394.201 30.592 395.721 30.96 397.001 31.696C398.281 32.4 399.257 33.376 399.929 34.624V30.928H410.537V57.52C410.537 60.048 410.073 62.352 409.145 64.432C408.217 66.512 406.713 68.176 404.633 69.424C402.585 70.672 399.945 71.296 396.713 71.296C392.361 71.296 388.905 70.272 386.345 68.224C383.817 66.208 382.377 63.456 382.025 59.968H392.489C392.777 61.376 393.929 62.08 395.945 62.08C397.193 62.08 398.169 61.76 398.873 61.12C399.577 60.48 399.929 59.28 399.929 57.52V54.304C399.257 55.552 398.281 56.544 397.001 57.28C395.721 57.984 394.201 58.336 392.441 58.336C390.329 58.336 388.425 57.792 386.729 56.704C385.033 55.584 383.689 53.984 382.697 51.904C381.737 49.792 381.257 47.312 381.257 44.464C381.257 41.616 381.737 39.152 382.697 37.072C383.689 34.96 385.033 33.36 386.729 32.272C388.425 31.152 390.329 30.592 392.441 30.592ZM399.929 44.464C399.929 43.024 399.561 41.904 398.825 41.104C398.089 40.304 397.145 39.904 395.993 39.904C394.841 39.904 393.897 40.304 393.161 41.104C392.425 41.904 392.057 43.024 392.057 44.464C392.057 45.904 392.425 47.024 393.161 47.824C393.897 48.624 394.841 49.024 395.993 49.024C397.145 49.024 398.089 48.624 398.825 47.824C399.561 47.024 399.929 45.904 399.929 44.464ZM441.53 44.224C441.53 44.96 441.482 45.664 441.386 46.336H424.25C424.41 48.672 425.386 49.84 427.178 49.84C428.33 49.84 429.162 49.312 429.674 48.256H440.954C440.57 50.176 439.754 51.904 438.506 53.44C437.29 54.944 435.738 56.144 433.85 57.04C431.994 57.904 429.946 58.336 427.706 58.336C425.018 58.336 422.618 57.776 420.506 56.656C418.426 55.536 416.794 53.936 415.61 51.856C414.458 49.744 413.882 47.28 413.882 44.464C413.882 41.648 414.458 39.2 415.61 37.12C416.794 35.008 418.426 33.392 420.506 32.272C422.618 31.152 425.018 30.592 427.706 30.592C430.394 30.592 432.778 31.152 434.858 32.272C436.97 33.36 438.602 34.928 439.754 36.976C440.938 39.024 441.53 41.44 441.53 44.224ZM430.73 41.68C430.73 40.784 430.442 40.112 429.866 39.664C429.29 39.184 428.57 38.944 427.706 38.944C425.818 38.944 424.714 39.856 424.394 41.68H430.73ZM455.556 35.92C456.644 34.352 457.972 33.104 459.54 32.176C461.108 31.216 462.74 30.736 464.436 30.736V42.112H461.412C459.396 42.112 457.908 42.464 456.948 43.168C456.02 43.872 455.556 45.12 455.556 46.912V58H444.9V30.928H455.556V35.92Z" fill="#7159C1"/>
<defs>
<clipPath id="clip0">
<rect y="3" width="75" height="75" fill="white"/>
</clipPath>
</defs>
</svg>
