<svg width="187" height="67" viewBox="0 0 187 67" fill="none" xmlns="http://www.w3.org/2000/svg">
<path d="M55.1827 24.4392L51.3789 20.6353L54.2384 17.777C54.4912 17.5244 54.6333 17.1822 54.6333 16.8243C54.6333 16.4663 54.4912 16.1241 54.2385 15.8715L50.41 12.043C49.9047 11.5377 49.0097 11.5377 48.5043 12.043L45.646 14.9025L41.8416 11.098C40.7891 10.0454 39.0825 10.0454 38.0299 11.098C36.9772 12.1505 36.9772 13.8571 38.0299 14.9097L51.3709 28.2509C52.4236 29.3034 54.1302 29.3034 55.1827 28.2509C56.2352 27.1983 56.2352 25.4918 55.1827 24.4392Z" fill="#7159C1"/>
<path d="M27.9422 51.7074L14.6012 38.3662C13.5485 37.3137 11.8421 37.3137 10.7894 38.3662C9.73687 39.4189 9.73687 41.1255 10.7894 42.178L14.5938 45.9825L11.7399 48.8352C11.4872 49.0879 11.3451 49.4301 11.3451 49.788C11.3451 50.1459 11.4872 50.4881 11.7399 50.7408L15.5684 54.568C15.8315 54.8313 16.1763 54.9629 16.5212 54.9629C16.866 54.9629 17.2108 54.8313 17.474 54.5681L20.3267 51.7153L24.1305 55.5192C25.183 56.5718 26.8896 56.5718 27.9422 55.5192C28.9949 54.4665 28.9949 52.7599 27.9422 51.7074Z" fill="#7159C1"/>
<path d="M34.2181 26.345L26.0364 34.5546L31.754 40.2723L39.9357 32.0625L34.2181 26.345Z" fill="#7159C1"/>
<path d="M51.371 32.0626L34.2181 14.9097C33.1656 13.8572 31.4589 13.8572 30.4064 14.9097C29.3537 15.9624 29.3537 17.6688 30.4064 18.7215L47.5593 35.8744C48.6118 36.9269 50.3184 36.9269 51.371 35.8744C52.4237 34.8219 52.4237 33.1153 51.371 32.0626Z" fill="#7159C1"/>
<path d="M35.5658 47.8957L18.4128 30.7427C17.3603 29.6902 15.6537 29.6902 14.6012 30.7427C13.5485 31.7954 13.5485 33.502 14.6012 34.5545L31.7541 51.7074C32.8066 52.7599 34.5132 52.7599 35.5658 51.7074C36.6185 50.6549 36.6185 48.9483 35.5658 47.8957Z" fill="#7159C1"/>
<path d="M76.2438 25.1992C75.611 25.9023 74.6852 26.4688 73.4665 26.8984C72.2477 27.3281 70.9118 27.543 69.4587 27.543C67.2243 27.543 65.4391 26.8594 64.1032 25.4922C62.7673 24.125 62.0524 22.2227 61.9587 19.7852L61.9469 18.3086C61.9469 16.6289 62.2438 15.1641 62.8376 13.9141C63.4313 12.6562 64.279 11.6914 65.3805 11.0195C66.4899 10.3398 67.7712 10 69.2243 10C71.3493 10 72.9977 10.4883 74.1696 11.4648C75.3493 12.4336 76.0368 13.8828 76.2321 15.8125H72.2712C72.1305 14.8594 71.8258 14.1797 71.3571 13.7734C70.8883 13.3672 70.2243 13.1641 69.3649 13.1641C68.3337 13.1641 67.5368 13.6016 66.9743 14.4766C66.4118 15.3516 66.1266 16.6016 66.1188 18.2266V19.2578C66.1188 20.9609 66.4079 22.2422 66.986 23.1016C67.5719 23.9531 68.4899 24.3789 69.7399 24.3789C70.8102 24.3789 71.6071 24.1406 72.1305 23.6641V21.0156H69.2712V18.1914H76.2438V25.1992Z" fill="#7159C1"/>
<path d="M84.8805 17.6523L88.0212 10.2461H92.4626L86.9665 21.1797V27.3086H82.7946V21.1797L77.3102 10.2461H81.7282L84.8805 17.6523Z" fill="#7159C1"/>
<path d="M99.1071 10.2461L102.916 22.1172L106.713 10.2461H112.127V27.3086H108.002V23.3242L108.4 15.168L104.275 27.3086H101.556L97.4196 15.1562L97.818 23.3242V27.3086H93.7048V10.2461H99.1071Z" fill="#7159C1"/>
<path d="M67.6774 38.2461L71.486 50.1172L75.2829 38.2461H80.6969V55.3086H76.5719V51.3242L76.9704 43.168L72.8454 55.3086H70.1266L65.9899 43.1562L66.3883 51.3242V55.3086H62.2751V38.2461H67.6774Z" fill="#7159C1"/>
<path d="M93.2243 52.1211H87.5876L86.6032 55.3086H82.2087L88.4665 38.2461H92.3337L98.6384 55.3086H94.2204L93.2243 52.1211ZM88.5719 48.9453H92.2399L90.4001 43.0273L88.5719 48.9453Z" fill="#7159C1"/>
<path d="M114.142 55.3086H110.052L104.006 44.6914V55.3086H99.8923V38.2461H104.006L110.041 48.8633V38.2461H114.142V55.3086Z" fill="#7159C1"/>
<path d="M126.646 52.1211H121.009L120.025 55.3086H115.631L121.888 38.2461H125.756L132.06 55.3086H127.642L126.646 52.1211ZM121.994 48.9453H125.662L123.822 43.0273L121.994 48.9453Z" fill="#7159C1"/>
<path d="M147.025 53.1992C146.392 53.9023 145.466 54.4688 144.248 54.8984C143.029 55.3281 141.693 55.543 140.24 55.543C138.006 55.543 136.22 54.8594 134.884 53.4922C133.549 52.125 132.834 50.2227 132.74 47.7852L132.728 46.3086C132.728 44.6289 133.025 43.1641 133.619 41.9141C134.213 40.6562 135.06 39.6914 136.162 39.0195C137.271 38.3398 138.552 38 140.006 38C142.131 38 143.779 38.4883 144.951 39.4648C146.131 40.4336 146.818 41.8828 147.013 43.8125H143.052C142.912 42.8594 142.607 42.1797 142.138 41.7734C141.67 41.3672 141.006 41.1641 140.146 41.1641C139.115 41.1641 138.318 41.6016 137.756 42.4766C137.193 43.3516 136.908 44.6016 136.9 46.2266V47.2578C136.9 48.9609 137.189 50.2422 137.767 51.1016C138.353 51.9531 139.271 52.3789 140.521 52.3789C141.591 52.3789 142.388 52.1406 142.912 51.6641V49.0156H140.052V46.1914H147.025V53.1992Z" fill="#7159C1"/>
<path d="M159.998 48.0781H153.529V52.1445H161.17V55.3086H149.416V38.2461H161.193V41.4219H153.529V45.0195H159.998V48.0781Z" fill="#7159C1"/>
<path d="M169.185 49.2852H166.959V55.3086H162.845V38.2461H169.56C171.584 38.2461 173.166 38.6953 174.306 39.5938C175.447 40.4922 176.017 41.7617 176.017 43.4023C176.017 44.5898 175.775 45.5742 175.291 46.3555C174.814 47.1367 174.064 47.7695 173.041 48.2539L176.603 55.1328V55.3086H172.197L169.185 49.2852ZM166.959 46.1094H169.56C170.341 46.1094 170.927 45.9062 171.318 45.5C171.716 45.0859 171.916 44.5117 171.916 43.7773C171.916 43.043 171.716 42.4688 171.318 42.0547C170.92 41.6328 170.334 41.4219 169.56 41.4219H166.959V46.1094Z" fill="#7159C1"/>
</svg>
