<svg width="463" height="86" viewBox="0 0 463 86" fill="none" xmlns="http://www.w3.org/2000/svg">
<path d="M25.5524 50.6217L34.3783 59.4476L59.4449 34.381L50.619 25.5551L25.5524 50.6217Z" fill="#7159C1"/>
<path d="M2.99629 73.8788C2.43434 74.4407 2.43434 75.3559 2.99629 75.9178L8.53264 81.4542C9.09459 82.018 10.0098 82.0142 10.5717 81.4542L12.7619 79.2631L5.18646 71.6886L2.99629 73.8788Z" fill="#7159C1"/>
<path d="M3.39484 49.682L23.7694 70.0575L31.5583 77.8454L31.5602 77.8473L35.3162 81.6043L43.4016 73.518L11.4803 41.5975L3.39484 49.682Z" fill="#7159C1"/>
<path d="M1.48458e-05 61.4522L23.55 85.0021L28.608 79.9441L5.05807 56.3941L1.48458e-05 61.4522Z" fill="#7159C1"/>
<path d="M81.4525 10.5734C82.0145 10.0114 82.0145 9.09623 81.4525 8.53429L75.9171 2.99888C75.647 2.72877 75.2853 2.57954 74.898 2.57954C74.5099 2.57954 74.1482 2.72782 73.879 2.99888L71.6879 5.19L79.2623 12.7645L81.4525 10.5734Z" fill="#7159C1"/>
<path d="M41.5964 11.482L73.5181 43.4037L81.6034 35.3185L49.6817 3.39671L41.5964 11.482Z" fill="#7159C1"/>
<path d="M56.3913 5.05806L79.9419 28.6087L85 23.5506L61.4493 -4.23508e-06L56.3913 5.05806Z" fill="#7159C1"/>
<path d="M117.624 31.736C119.448 31.736 121.032 32.104 122.376 32.84C123.752 33.576 124.808 34.568 125.544 35.816V32.072H134.952V58.712C134.952 61.24 134.472 63.512 133.512 65.528C132.552 67.576 131.048 69.208 129 70.424C126.984 71.64 124.424 72.248 121.32 72.248C117.16 72.248 113.832 71.272 111.336 69.32C108.84 67.368 107.416 64.712 107.064 61.352H116.328C116.52 62.216 117 62.888 117.768 63.368C118.536 63.848 119.528 64.088 120.744 64.088C123.944 64.088 125.544 62.296 125.544 58.712V55.256C124.808 56.504 123.752 57.496 122.376 58.232C121.032 58.968 119.448 59.336 117.624 59.336C115.48 59.336 113.528 58.776 111.768 57.656C110.04 56.536 108.664 54.936 107.64 52.856C106.648 50.744 106.152 48.296 106.152 45.512C106.152 42.728 106.648 40.296 107.64 38.216C108.664 36.136 110.04 34.536 111.768 33.416C113.528 32.296 115.48 31.736 117.624 31.736ZM125.544 45.512C125.544 43.784 125.064 42.424 124.104 41.432C123.176 40.44 122.024 39.944 120.648 39.944C119.24 39.944 118.072 40.44 117.144 41.432C116.216 42.392 115.752 43.752 115.752 45.512C115.752 47.24 116.216 48.616 117.144 49.64C118.072 50.632 119.24 51.128 120.648 51.128C122.024 51.128 123.176 50.632 124.104 49.64C125.064 48.648 125.544 47.272 125.544 45.512ZM169.305 32.072L152.217 71.816H141.993L148.425 57.848L137.385 32.072H147.849L153.513 47.336L158.985 32.072H169.305ZM206.95 31.832C210.342 31.832 212.998 32.856 214.918 34.904C216.87 36.952 217.846 39.752 217.846 43.304V59H208.438V44.552C208.438 43.112 208.038 41.992 207.238 41.192C206.438 40.392 205.35 39.992 203.974 39.992C202.598 39.992 201.51 40.392 200.71 41.192C199.91 41.992 199.51 43.112 199.51 44.552V59H190.102V44.552C190.102 43.112 189.702 41.992 188.902 41.192C188.134 40.392 187.062 39.992 185.686 39.992C184.278 39.992 183.174 40.392 182.374 41.192C181.574 41.992 181.174 43.112 181.174 44.552V59H171.766V32.072H181.174V35.624C182.006 34.472 183.078 33.56 184.39 32.888C185.734 32.184 187.27 31.832 188.998 31.832C190.982 31.832 192.742 32.264 194.278 33.128C195.846 33.992 197.078 35.208 197.974 36.776C198.934 35.304 200.198 34.12 201.766 33.224C203.334 32.296 205.062 31.832 206.95 31.832ZM267.372 31.832C270.764 31.832 273.42 32.856 275.34 34.904C277.292 36.952 278.268 39.752 278.268 43.304V59H268.86V44.552C268.86 43.112 268.46 41.992 267.66 41.192C266.86 40.392 265.772 39.992 264.396 39.992C263.02 39.992 261.932 40.392 261.132 41.192C260.332 41.992 259.932 43.112 259.932 44.552V59H250.524V44.552C250.524 43.112 250.124 41.992 249.324 41.192C248.556 40.392 247.484 39.992 246.108 39.992C244.7 39.992 243.596 40.392 242.796 41.192C241.996 41.992 241.596 43.112 241.596 44.552V59H232.188V32.072H241.596V35.624C242.428 34.472 243.5 33.56 244.812 32.888C246.156 32.184 247.692 31.832 249.42 31.832C251.404 31.832 253.164 32.264 254.7 33.128C256.268 33.992 257.5 35.208 258.396 36.776C259.356 35.304 260.62 34.12 262.188 33.224C263.756 32.296 265.484 31.832 267.372 31.832ZM281.886 45.512C281.886 42.728 282.382 40.296 283.374 38.216C284.398 36.136 285.774 34.536 287.502 33.416C289.262 32.296 291.214 31.736 293.358 31.736C295.214 31.736 296.814 32.104 298.158 32.84C299.502 33.576 300.542 34.568 301.278 35.816V32.072H310.686V59H301.278V55.256C300.542 56.504 299.486 57.496 298.11 58.232C296.766 58.968 295.182 59.336 293.358 59.336C291.214 59.336 289.262 58.776 287.502 57.656C285.774 56.536 284.398 54.936 283.374 52.856C282.382 50.744 281.886 48.296 281.886 45.512ZM301.278 45.512C301.278 43.784 300.798 42.424 299.838 41.432C298.91 40.44 297.758 39.944 296.382 39.944C294.974 39.944 293.806 40.44 292.878 41.432C291.95 42.392 291.486 43.752 291.486 45.512C291.486 47.24 291.95 48.616 292.878 49.64C293.806 50.632 294.974 51.128 296.382 51.128C297.758 51.128 298.91 50.632 299.838 49.64C300.798 48.648 301.278 47.272 301.278 45.512ZM333.663 31.832C336.767 31.832 339.231 32.872 341.055 34.952C342.879 37 343.791 39.784 343.791 43.304V59H334.383V44.552C334.383 43.016 333.983 41.816 333.183 40.952C332.383 40.056 331.311 39.608 329.967 39.608C328.559 39.608 327.455 40.056 326.655 40.952C325.855 41.816 325.455 43.016 325.455 44.552V59H316.047V32.072H325.455V35.912C326.287 34.696 327.407 33.72 328.815 32.984C330.223 32.216 331.839 31.832 333.663 31.832ZM347.418 45.512C347.418 42.728 347.914 40.296 348.906 38.216C349.93 36.136 351.306 34.536 353.034 33.416C354.794 32.296 356.746 31.736 358.89 31.736C360.746 31.736 362.346 32.104 363.69 32.84C365.034 33.576 366.074 34.568 366.81 35.816V32.072H376.218V59H366.81V55.256C366.074 56.504 365.018 57.496 363.642 58.232C362.298 58.968 360.714 59.336 358.89 59.336C356.746 59.336 354.794 58.776 353.034 57.656C351.306 56.536 349.93 54.936 348.906 52.856C347.914 50.744 347.418 48.296 347.418 45.512ZM366.81 45.512C366.81 43.784 366.33 42.424 365.37 41.432C364.442 40.44 363.29 39.944 361.914 39.944C360.506 39.944 359.338 40.44 358.41 41.432C357.482 42.392 357.018 43.752 357.018 45.512C357.018 47.24 357.482 48.616 358.41 49.64C359.338 50.632 360.506 51.128 361.914 51.128C363.29 51.128 364.442 50.632 365.37 49.64C366.33 48.648 366.81 47.272 366.81 45.512ZM391.515 31.736C393.339 31.736 394.923 32.104 396.267 32.84C397.643 33.576 398.699 34.568 399.435 35.816V32.072H408.843V58.712C408.843 61.24 408.363 63.512 407.403 65.528C406.443 67.576 404.939 69.208 402.891 70.424C400.875 71.64 398.315 72.248 395.211 72.248C391.051 72.248 387.723 71.272 385.227 69.32C382.731 67.368 381.307 64.712 380.955 61.352H390.219C390.411 62.216 390.891 62.888 391.659 63.368C392.427 63.848 393.419 64.088 394.635 64.088C397.835 64.088 399.435 62.296 399.435 58.712V55.256C398.699 56.504 397.643 57.496 396.267 58.232C394.923 58.968 393.339 59.336 391.515 59.336C389.371 59.336 387.419 58.776 385.659 57.656C383.931 56.536 382.555 54.936 381.531 52.856C380.539 50.744 380.043 48.296 380.043 45.512C380.043 42.728 380.539 40.296 381.531 38.216C382.555 36.136 383.931 34.536 385.659 33.416C387.419 32.296 389.371 31.736 391.515 31.736ZM399.435 45.512C399.435 43.784 398.955 42.424 397.995 41.432C397.067 40.44 395.915 39.944 394.539 39.944C393.131 39.944 391.963 40.44 391.035 41.432C390.107 42.392 389.643 43.752 389.643 45.512C389.643 47.24 390.107 48.616 391.035 49.64C391.963 50.632 393.131 51.128 394.539 51.128C395.915 51.128 397.067 50.632 397.995 49.64C398.955 48.648 399.435 47.272 399.435 45.512ZM439.932 45.224C439.932 45.96 439.884 46.696 439.788 47.432H421.98C422.076 48.904 422.476 50.008 423.18 50.744C423.916 51.448 424.844 51.8 425.964 51.8C427.532 51.8 428.652 51.096 429.324 49.688H439.356C438.94 51.544 438.124 53.208 436.908 54.68C435.724 56.12 434.22 57.256 432.396 58.088C430.572 58.92 428.556 59.336 426.348 59.336C423.692 59.336 421.324 58.776 419.244 57.656C417.196 56.536 415.58 54.936 414.396 52.856C413.244 50.776 412.668 48.328 412.668 45.512C412.668 42.696 413.244 40.264 414.396 38.216C415.548 36.136 417.148 34.536 419.196 33.416C421.276 32.296 423.66 31.736 426.348 31.736C429.004 31.736 431.356 32.28 433.404 33.368C435.452 34.456 437.052 36.024 438.204 38.072C439.356 40.088 439.932 42.472 439.932 45.224ZM430.332 42.872C430.332 41.72 429.948 40.824 429.18 40.184C428.412 39.512 427.452 39.176 426.3 39.176C425.148 39.176 424.204 39.496 423.468 40.136C422.732 40.744 422.252 41.656 422.028 42.872H430.332ZM453.19 36.824C454.246 35.288 455.526 34.072 457.03 33.176C458.534 32.28 460.15 31.832 461.878 31.832V41.864H459.238C457.19 41.864 455.67 42.264 454.678 43.064C453.686 43.864 453.19 45.256 453.19 47.24V59H443.782V32.072H453.19V36.824Z" fill="#7159C1"/>
</svg>
